<?xml version="1.0" encoding="UTF-8" standalone="no"?>
<!DOCTYPE svg PUBLIC "-//W3C//DTD SVG 1.1//EN" "http://www.w3.org/Graphics/SVG/1.1/DTD/svg11.dtd">
<svg width="100%" height="100%" viewBox="0 0 24 24" version="1.1" xmlns="http://www.w3.org/2000/svg" xmlns:xlink="http://www.w3.org/1999/xlink" xml:space="preserve" xmlns:serif="http://www.serif.com/" style="fill-rule:evenodd;clip-rule:evenodd;stroke-linejoin:round;stroke-miterlimit:2;">
    <g transform="matrix(1.04774,0,0,1.04774,0.191341,-0.247182)">
        <rect x="-0.183" y="0.236" width="3.818" height="3.818" style="fill:rgb(244,244,244);"/>
    </g>
    <g transform="matrix(1.04774,0,0,1.04774,4.19134,3.75282)">
        <rect x="-0.183" y="0.236" width="3.818" height="3.818" style="fill:rgb(244,244,244);"/>
    </g>
    <g transform="matrix(1.04774,0,0,1.04774,0.191341,7.75282)">
        <rect x="-0.183" y="0.236" width="3.818" height="3.818" style="fill:rgb(244,244,244);"/>
    </g>
    <g transform="matrix(1.04774,0,0,1.04774,8.19134,-0.247182)">
        <rect x="-0.183" y="0.236" width="3.818" height="3.818" style="fill:rgb(244,244,244);"/>
    </g>
    <g transform="matrix(1.04774,0,0,1.04774,8.19134,7.75282)">
        <rect x="-0.183" y="0.236" width="3.818" height="3.818" style="fill:rgb(244,244,244);"/>
    </g>
    <g transform="matrix(1.04774,0,0,1.04774,4.19134,11.7528)">
        <rect x="-0.183" y="0.236" width="3.818" height="3.818" style="fill:rgb(244,244,244);"/>
    </g>
    <g transform="matrix(1.04774,0,0,1.04774,0.191341,15.7528)">
        <rect x="-0.183" y="0.236" width="3.818" height="3.818" style="fill:rgb(244,244,244);"/>
    </g>
    <g transform="matrix(1.04774,0,0,1.04774,12.1913,3.75282)">
        <rect x="-0.183" y="0.236" width="3.818" height="3.818" style="fill:rgb(244,244,244);"/>
    </g>
    <g transform="matrix(1.04774,0,0,1.04774,16.1913,-0.247182)">
        <rect x="-0.183" y="0.236" width="3.818" height="3.818" style="fill:rgb(244,244,244);"/>
    </g>
    <g transform="matrix(1.04774,0,0,1.04774,20.1913,3.75282)">
        <rect x="-0.183" y="0.236" width="3.818" height="3.818" style="fill:rgb(244,244,244);"/>
    </g>
    <g transform="matrix(1.04774,0,0,1.04774,12.1913,11.7528)">
        <rect x="-0.183" y="0.236" width="3.818" height="3.818" style="fill:rgb(244,244,244);"/>
    </g>
    <g transform="matrix(1.04774,0,0,1.04774,8.19134,15.7528)">
        <rect x="-0.183" y="0.236" width="3.818" height="3.818" style="fill:rgb(244,244,244);"/>
    </g>
    <g transform="matrix(1.04774,0,0,1.04774,4.19134,19.7528)">
        <rect x="-0.183" y="0.236" width="3.818" height="3.818" style="fill:rgb(244,244,244);"/>
    </g>
    <g transform="matrix(1.04774,0,0,1.04774,16.1913,7.75282)">
        <rect x="-0.183" y="0.236" width="3.818" height="3.818" style="fill:rgb(244,244,244);"/>
    </g>
    <g transform="matrix(1.04774,0,0,1.04774,20.1913,11.7528)">
        <rect x="-0.183" y="0.236" width="3.818" height="3.818" style="fill:rgb(244,244,244);"/>
    </g>
    <g transform="matrix(1.04774,0,0,1.04774,16.1913,15.7528)">
        <rect x="-0.183" y="0.236" width="3.818" height="3.818" style="fill:rgb(244,244,244);"/>
    </g>
    <g transform="matrix(1.04774,0,0,1.04774,12.1913,19.7528)">
        <rect x="-0.183" y="0.236" width="3.818" height="3.818" style="fill:rgb(244,244,244);"/>
    </g>
    <g transform="matrix(1.04774,0,0,1.04774,20.1913,19.7528)">
        <rect x="-0.183" y="0.236" width="3.818" height="3.818" style="fill:rgb(244,244,244);"/>
    </g>
</svg>
